<svg xmlns="http://www.w3.org/2000/svg" viewBox="0 0 600 600" role="img" aria-labelledby="title desc">
  <title id="title">AWSA emblem logo</title>
  <desc id="desc">Association of Washington State Azerbaijanis circular emblem with mountains, Space Needle, and flags.</desc>

  <rect width="600" height="600" fill="#efefef" />
  <circle cx="300" cy="300" r="278" fill="#fff" stroke="#111" stroke-width="4" />
  <circle cx="300" cy="300" r="245" fill="none" stroke="#111" stroke-width="3" />

  <defs>
    <path id="topArc" d="M 78 300 A 222 222 0 0 1 522 300" />
    <path id="bottomArc" d="M 522 300 A 222 222 0 0 1 78 300" />
  </defs>

  <text font-family="Arial, sans-serif" font-size="18" font-weight="700" fill="#111" letter-spacing="1.2">
    <textPath href="#topArc" startOffset="50%" text-anchor="middle">ASSOCIATION OF WASHINGTON STATE AZERBAIJANIS</textPath>
  </text>
  <text font-family="Arial, sans-serif" font-size="18" font-weight="700" fill="#111" letter-spacing="1.1">
    <textPath href="#bottomArc" startOffset="50%" text-anchor="middle">VAŞİNQTON ŞTAT AZƏRBAYCANLILARI BİRLİYİ</textPath>
  </text>

  <g transform="translate(0,10)">
    <path d="M110 335 Q190 250 250 300 Q300 220 350 300 Q420 245 500 340" fill="none" stroke="#111" stroke-width="4" />
    <path d="M120 405 Q200 330 300 380 Q420 330 490 405" fill="none" stroke="#111" stroke-width="4" />

    <path d="M280 420 L320 420 L313 265 L287 265 Z" fill="#fff" stroke="#111" stroke-width="3" />
    <ellipse cx="300" cy="265" rx="35" ry="12" fill="#fff" stroke="#111" stroke-width="3" />
    <ellipse cx="300" cy="245" rx="22" ry="8" fill="#fff" stroke="#111" stroke-width="3" />
    <path d="M292 245 L300 224 L308 245 Z" fill="#111" />
    <g stroke="#111" stroke-width="2">
      <line x1="293" y1="280" x2="307" y2="280" />
      <line x1="292" y1="300" x2="308" y2="300" />
      <line x1="291" y1="320" x2="309" y2="320" />
      <line x1="290" y1="340" x2="310" y2="340" />
      <line x1="289" y1="360" x2="311" y2="360" />
      <line x1="288" y1="380" x2="312" y2="380" />
    </g>

    <path d="M160 435 L190 300 L215 300 L225 435" fill="#fff" stroke="#111" stroke-width="3" />
    <path d="M225 435 L250 315 L275 315 L285 435" fill="#fff" stroke="#111" stroke-width="3" />
    <path d="M315 435 L325 315 L350 315 L375 435" fill="#fff" stroke="#111" stroke-width="3" />
    <path d="M380 435 L395 330 L445 325 L458 435" fill="#fff" stroke="#111" stroke-width="3" />
    <path d="M120 450 L120 370 L180 430 L180 380 L228 420 L228 455" fill="#fff" stroke="#111" stroke-width="4" />
  </g>

  <g transform="translate(158,115) rotate(-8)">
    <path d="M0 0 h92 l-10 55 h-92 z" fill="#0b9b63" stroke="#111" stroke-width="2" />
    <circle cx="50" cy="26" r="11" fill="#f5c542" stroke="#0b6a45" stroke-width="2" />
  </g>

  <g transform="translate(332,105) rotate(8)">
    <path d="M0 0 h112 v18 h-112z" fill="#15a7c9" />
    <path d="M0 18 h112 v16 h-112z" fill="#d63248" />
    <path d="M0 34 h112 v18 h-112z" fill="#0da15b" />
    <circle cx="58" cy="26" r="10" fill="none" stroke="#fff" stroke-width="3" />
    <circle cx="62" cy="26" r="8" fill="#d63248" />
    <polygon points="77,26 70,22 70,30" fill="#fff" />
    <rect x="0" y="0" width="112" height="52" fill="none" stroke="#111" stroke-width="2" />
  </g>

  <g transform="translate(230,500)">
    <rect x="0" y="0" width="140" height="18" fill="#b23" />
    <g fill="#fff">
      <rect x="0" y="3" width="140" height="2" />
      <rect x="0" y="8" width="140" height="2" />
      <rect x="0" y="13" width="140" height="2" />
    </g>
    <rect x="0" y="0" width="30" height="10" fill="#1f4a8a" />
  </g>
</svg>
