<svg xmlns="http://www.w3.org/2000/svg" viewBox="0 0 1600 900" preserveAspectRatio="xMidYMid slice">
  <defs>
    <linearGradient id="sky" x1="0" y1="0" x2="0" y2="1">
      <stop offset="0%" stop-color="#6a4430"/>
      <stop offset="55%" stop-color="#8a5a3b"/>
      <stop offset="100%" stop-color="#3a2317"/>
    </linearGradient>
  </defs>
  <rect width="1600" height="900" fill="url(#sky)"/>
  <g opacity="0.22" fill="#d2a07a">
    <rect y="85" width="1600" height="26"/>
    <rect y="165" width="1600" height="24"/>
    <rect y="255" width="1600" height="22"/>
    <rect y="340" width="1600" height="22"/>
  </g>

  <rect y="640" width="1600" height="260" fill="#402618"/>

  <g fill="#a3714d" stroke="#6e432c" stroke-width="6">
    <path d="M320 640 L360 410 L470 360 L560 430 L560 640 Z"/>
    <path d="M735 640 L735 350 Q810 300 875 350 L875 640 Z"/>
    <rect x="815" y="350" width="35" height="290"/>
  </g>

  <g fill="#5b3626">
    <path d="M1080 640 Q1140 340 1200 640 Z"/>
    <path d="M1230 640 Q1275 395 1325 640 Z"/>
    <path d="M1340 640 Q1400 360 1470 640 Z"/>
  </g>

  <g stroke="#e8a35f" stroke-width="3" opacity="0.8">
    <line x1="1110" y1="610" x2="1170" y2="610"/>
    <line x1="1120" y1="575" x2="1160" y2="575"/>
    <line x1="1128" y1="540" x2="1152" y2="540"/>
    <line x1="1245" y1="610" x2="1310" y2="610"/>
    <line x1="1255" y1="575" x2="1300" y2="575"/>
    <line x1="1265" y1="540" x2="1290" y2="540"/>
    <line x1="1368" y1="610" x2="1445" y2="610"/>
    <line x1="1376" y1="575" x2="1436" y2="575"/>
    <line x1="1388" y1="540" x2="1424" y2="540"/>
  </g>

  <g fill="#2f1b12" opacity="0.8">
    <circle cx="130" cy="640" r="80"/>
    <circle cx="320" cy="640" r="72"/>
    <circle cx="520" cy="640" r="68"/>
    <circle cx="930" cy="640" r="84"/>
    <circle cx="1520" cy="640" r="80"/>
  </g>
</svg>
